# xmcd
#
# Track frame offsets: 
#        150
#        13822
#        25860
#        37755
#        47767
#        61377
#        73127
#        84615
#        98875
#        113790
#        132415
#        146245
#        159032
#        170165
#        179977
#        194442
#        212327
#        223105
#        234672
#        244800
#        252630
#        265815
#        278890
#
# Disc length: 3837 seconds
#
# Revision: 0
# Processed by: cddbd v1.5.2PL0 Copyright (c) Steve Scherf et al.
# Submitted via: ExactAudioCopyFreeDBPlugin 1.0
#
DISCID=610efb17
DTITLE=Various Artist - The best of 20 years before Vol 5
DYEAR=1900
DGENRE=Instrumental Pop
TTITLE0=Speedy Gonzales
TTITLE1=King Of The Road
TTITLE2=Save The Last Dance For Me
TTITLE3=George Girl
TTITLE4=Tammy
TTITLE5=Rock and Roll Music
TTITLE6=Come Back When You Grow Up
TTITLE7=I Went To Your Wedding
TTITLE8=Unchained Melody
TTITLE9=Honey
TTITLE10=Al Di La
TTITLE11=You Don't Have To Say You Love Me
TTITLE12=Where The Boys Are
TTITLE13=Summer Holiday
TTITLE14=Blue Tango
TTITLE15=Today
TTITLE16=The Twist Again
TTITLE17=Smoke Gets In Your Eyes
TTITLE18=Only You
TTITLE19=Yellow Rose Of Texas
TTITLE20=By The Time I Get To Phoenix
TTITLE21=Am I That Easy To Forget
TTITLE22=Yesterday
EXTD=
EXTT0=
EXTT1=
EXTT2=
EXTT3=
EXTT4=
EXTT5=
EXTT6=
EXTT7=
EXTT8=
EXTT9=
EXTT10=
EXTT11=
EXTT12=
EXTT13=
EXTT14=
EXTT15=
EXTT16=
EXTT17=
EXTT18=
EXTT19=
EXTT20=
EXTT21=
EXTT22=
PLAYORDER=
